<svg width="30" height="30" viewBox="0 0 30 30" fill="none" xmlns="http://www.w3.org/2000/svg">
<path d="M10.277 15.0001C10.277 12.3922 12.3918 10.2775 15.0013 10.2775C17.6108 10.2775 19.7267 12.3922 19.7267 15.0001C19.7267 17.608 17.6108 19.7227 15.0013 19.7227C12.3918 19.7227 10.277 17.608 10.277 15.0001ZM7.72254 15.0001C7.72254 19.0178 10.9812 22.2745 15.0013 22.2745C19.0214 22.2745 22.2801 19.0178 22.2801 15.0001C22.2801 10.9825 19.0214 7.72573 15.0013 7.72573C10.9812 7.72573 7.72254 10.9825 7.72254 15.0001ZM20.8672 7.4373C20.8671 7.77353 20.9667 8.10224 21.1535 8.38188C21.3403 8.66152 21.6059 8.87952 21.9166 9.00831C22.2274 9.1371 22.5694 9.1709 22.8994 9.10544C23.2294 9.03998 23.5325 8.87819 23.7705 8.64054C24.0085 8.40288 24.1706 8.10004 24.2364 7.7703C24.3022 7.44056 24.2686 7.09873 24.14 6.78805C24.0114 6.47736 23.7935 6.21177 23.5138 6.02486C23.2342 5.83795 22.9053 5.73812 22.5689 5.73798H22.5682C22.1173 5.73819 21.6848 5.91727 21.3659 6.23589C21.0469 6.55451 20.8676 6.98661 20.8672 7.4373ZM9.27455 26.5314C7.89253 26.4685 7.14136 26.2385 6.64217 26.0441C5.98036 25.7866 5.50816 25.4799 5.01169 24.9844C4.51522 24.4889 4.2079 24.0175 3.95139 23.3561C3.75679 22.8574 3.52659 22.1064 3.46377 20.7253C3.39505 19.232 3.38132 18.7834 3.38132 15.0002C3.38132 11.2171 3.39618 10.7697 3.46377 9.27522C3.5267 7.89403 3.75861 7.14456 3.95139 6.64442C4.20904 5.98301 4.5159 5.51109 5.01169 5.01492C5.50748 4.51875 5.97923 4.21161 6.64217 3.95525C7.14113 3.76077 7.89253 3.53071 9.27455 3.46792C10.7687 3.39924 11.2176 3.38553 15.0013 3.38553C18.785 3.38553 19.2343 3.40038 20.7298 3.46792C22.1118 3.53082 22.8617 3.76259 23.3621 3.95525C24.0239 4.21161 24.4961 4.51943 24.9926 5.01492C25.4891 5.51041 25.7953 5.98301 26.0529 6.64442C26.2475 7.14309 26.4777 7.89403 26.5405 9.27522C26.6093 10.7697 26.623 11.2171 26.623 15.0002C26.623 18.7834 26.6093 19.2307 26.5405 20.7253C26.4776 22.1064 26.2463 22.8572 26.0529 23.3561C25.7953 24.0175 25.4884 24.4894 24.9926 24.9844C24.4968 25.4795 24.0239 25.7866 23.3621 26.0441C22.8632 26.2386 22.1118 26.4686 20.7298 26.5314C19.2356 26.6001 18.7867 26.6138 15.0013 26.6138C11.2159 26.6138 10.7683 26.6001 9.27455 26.5314ZM9.15718 0.919289C7.64815 0.987969 6.61699 1.2271 5.71648 1.5773C4.78387 1.93895 3.99437 2.42413 3.20544 3.21134C2.41651 3.99855 1.93229 4.78882 1.57042 5.72087C1.22001 6.62141 0.980737 7.65138 0.912016 9.15951C0.842161 10.67 0.826172 11.1529 0.826172 15.0001C0.826172 18.8473 0.842161 19.3302 0.912016 20.8407C0.980737 22.349 1.22001 23.3788 1.57042 24.2794C1.93229 25.2109 2.41662 26.002 3.20544 26.7889C3.99426 27.5758 4.78387 28.0603 5.71648 28.4229C6.6187 28.7731 7.64815 29.0123 9.15718 29.081C10.6694 29.1496 11.1518 29.1668 15.0013 29.1668C18.8508 29.1668 19.334 29.1508 20.8454 29.081C22.3546 29.0123 23.385 28.7731 24.2861 28.4229C25.2182 28.0603 26.0082 27.5761 26.7972 26.7889C27.5861 26.0017 28.0693 25.2109 28.4322 24.2794C28.7826 23.3788 29.023 22.3489 29.0906 20.8407C29.1593 19.3291 29.1753 18.8473 29.1753 15.0001C29.1753 11.1529 29.1593 10.67 29.0906 9.15951C29.0219 7.65127 28.7826 6.62085 28.4322 5.72087C28.0693 4.78939 27.5848 3.99979 26.7972 3.21134C26.0095 2.42288 25.2182 1.93895 24.2873 1.5773C23.385 1.2271 22.3544 0.986836 20.8466 0.919289C19.3351 0.850609 18.8519 0.833496 15.0024 0.833496C11.1529 0.833496 10.6694 0.849476 9.15718 0.919289Z" fill="#0F0F0F"/>
<path d="M10.277 15.0001C10.277 12.3922 12.3918 10.2775 15.0013 10.2775C17.6108 10.2775 19.7267 12.3922 19.7267 15.0001C19.7267 17.608 17.6108 19.7227 15.0013 19.7227C12.3918 19.7227 10.277 17.608 10.277 15.0001ZM7.72254 15.0001C7.72254 19.0178 10.9812 22.2745 15.0013 22.2745C19.0214 22.2745 22.2801 19.0178 22.2801 15.0001C22.2801 10.9825 19.0214 7.72573 15.0013 7.72573C10.9812 7.72573 7.72254 10.9825 7.72254 15.0001ZM20.8672 7.4373C20.8671 7.77353 20.9667 8.10224 21.1535 8.38188C21.3403 8.66152 21.6059 8.87952 21.9166 9.00831C22.2274 9.1371 22.5694 9.1709 22.8994 9.10544C23.2294 9.03998 23.5325 8.87819 23.7705 8.64054C24.0085 8.40288 24.1706 8.10004 24.2364 7.7703C24.3022 7.44056 24.2686 7.09873 24.14 6.78805C24.0114 6.47736 23.7935 6.21177 23.5138 6.02486C23.2342 5.83795 22.9053 5.73812 22.5689 5.73798H22.5682C22.1173 5.73819 21.6848 5.91727 21.3659 6.23589C21.0469 6.55451 20.8676 6.98661 20.8672 7.4373ZM9.27455 26.5314C7.89253 26.4685 7.14136 26.2385 6.64217 26.0441C5.98036 25.7866 5.50816 25.4799 5.01169 24.9844C4.51522 24.4889 4.2079 24.0175 3.95139 23.3561C3.75679 22.8574 3.52659 22.1064 3.46377 20.7253C3.39505 19.232 3.38132 18.7834 3.38132 15.0002C3.38132 11.2171 3.39618 10.7697 3.46377 9.27522C3.5267 7.89403 3.75861 7.14456 3.95139 6.64442C4.20904 5.98301 4.5159 5.51109 5.01169 5.01492C5.50748 4.51875 5.97923 4.21161 6.64217 3.95525C7.14113 3.76077 7.89253 3.53071 9.27455 3.46792C10.7687 3.39924 11.2176 3.38553 15.0013 3.38553C18.785 3.38553 19.2343 3.40038 20.7298 3.46792C22.1118 3.53082 22.8617 3.76259 23.3621 3.95525C24.0239 4.21161 24.4961 4.51943 24.9926 5.01492C25.4891 5.51041 25.7953 5.98301 26.0529 6.64442C26.2475 7.14309 26.4777 7.89403 26.5405 9.27522C26.6093 10.7697 26.623 11.2171 26.623 15.0002C26.623 18.7834 26.6093 19.2307 26.5405 20.7253C26.4776 22.1064 26.2463 22.8572 26.0529 23.3561C25.7953 24.0175 25.4884 24.4894 24.9926 24.9844C24.4968 25.4795 24.0239 25.7866 23.3621 26.0441C22.8632 26.2386 22.1118 26.4686 20.7298 26.5314C19.2356 26.6001 18.7867 26.6138 15.0013 26.6138C11.2159 26.6138 10.7683 26.6001 9.27455 26.5314ZM9.15718 0.919289C7.64815 0.987969 6.61699 1.2271 5.71648 1.5773C4.78387 1.93895 3.99437 2.42413 3.20544 3.21134C2.41651 3.99855 1.93229 4.78882 1.57042 5.72087C1.22001 6.62141 0.980737 7.65138 0.912016 9.15951C0.842161 10.67 0.826172 11.1529 0.826172 15.0001C0.826172 18.8473 0.842161 19.3302 0.912016 20.8407C0.980737 22.349 1.22001 23.3788 1.57042 24.2794C1.93229 25.2109 2.41662 26.002 3.20544 26.7889C3.99426 27.5758 4.78387 28.0603 5.71648 28.4229C6.6187 28.7731 7.64815 29.0123 9.15718 29.081C10.6694 29.1496 11.1518 29.1668 15.0013 29.1668C18.8508 29.1668 19.334 29.1508 20.8454 29.081C22.3546 29.0123 23.385 28.7731 24.2861 28.4229C25.2182 28.0603 26.0082 27.5761 26.7972 26.7889C27.5861 26.0017 28.0693 25.2109 28.4322 24.2794C28.7826 23.3788 29.023 22.3489 29.0906 20.8407C29.1593 19.3291 29.1753 18.8473 29.1753 15.0001C29.1753 11.1529 29.1593 10.67 29.0906 9.15951C29.0219 7.65127 28.7826 6.62085 28.4322 5.72087C28.0693 4.78939 27.5848 3.99979 26.7972 3.21134C26.0095 2.42288 25.2182 1.93895 24.2873 1.5773C23.385 1.2271 22.3544 0.986836 20.8466 0.919289C19.3351 0.850609 18.8519 0.833496 15.0024 0.833496C11.1529 0.833496 10.6694 0.849476 9.15718 0.919289Z" fill="#0F0F0F"/>
</svg>
