<svg width="32" height="32" viewBox="0 0 32 32" fill="none" xmlns="http://www.w3.org/2000/svg">
<path d="M15.6016 31.5837C6.99636 31.5837 0 24.5995 0 16.0064C0 7.40116 6.99636 0.416992 15.6016 0.416992C24.2069 0.416992 31.2033 7.40116 31.2033 15.9942C31.2033 24.5873 24.2069 31.5837 15.6016 31.5837ZM28.7533 18.1273C28.3023 17.981 24.6335 16.8962 20.4528 17.5544C22.1958 22.3324 22.9027 26.2328 23.0368 27.0373C26.0352 25.0261 28.1683 21.8327 28.7533 18.1273ZM20.8062 28.2683C20.6112 27.0982 19.8311 23.0272 17.9663 18.176C17.9419 18.1882 17.9053 18.2004 17.8809 18.2004C10.3605 20.821 7.66674 26.0256 7.42296 26.5132C9.67789 28.2683 12.5179 29.3166 15.6016 29.3166C17.4421 29.3288 19.2095 28.9509 20.8062 28.2683ZM5.70435 24.9164C6.00907 24.4045 9.6657 18.3589 16.5402 16.1283C16.7108 16.0674 16.8936 16.0186 17.0643 15.9699C16.7352 15.2142 16.3695 14.4585 15.9795 13.7149C9.32441 15.7017 2.86436 15.6164 2.2793 15.6042C2.2793 15.7383 2.26711 15.8724 2.26711 16.0064C2.2793 19.4315 3.57131 22.5518 5.70435 24.9164ZM2.55964 13.2883C3.15689 13.3005 8.64184 13.3249 14.8825 11.6672C12.6763 7.74245 10.2873 4.45148 9.94604 3.97611C6.20409 5.7313 3.42505 9.16853 2.55964 13.2883ZM12.4813 3.07414C12.847 3.5617 15.2725 6.85266 17.4543 10.8628C22.1958 9.08321 24.1947 6.40168 24.4385 6.06039C22.0861 3.97611 18.9901 2.70848 15.6016 2.70848C14.529 2.70848 13.4808 2.84256 12.4813 3.07414ZM25.9133 7.59618C25.633 7.97403 23.4024 10.8384 18.4782 12.8495C18.7829 13.4834 19.0876 14.1294 19.368 14.7754C19.4655 15.007 19.563 15.2385 19.6605 15.4579C24.0972 14.8973 28.4974 15.7992 28.9361 15.8845C28.8996 12.752 27.7782 9.86329 25.9133 7.59618Z" fill="#0F0F0F"/>
</svg>
